<svg t="1644916215352" class="icon" viewBox="0 0 1024 1024" version="1.1" xmlns="http://www.w3.org/2000/svg" p-id="4008" width="200" height="200"><path d="M69.784836 257.655721v509.452737l441.196259 254.726368 441.201353-254.726368v-509.452737L510.981095 2.929353z" fill="#001F45" p-id="4009"></path><path d="M107.606607 279.490866v465.782447L510.981095 978.159443l403.374487-232.88613V279.490866L510.981095 46.599642z" fill="#FFFFFF" p-id="4010"></path><path d="M145.856318 301.575642v421.612895l365.124777 210.811543 365.124776-210.811543V301.575642L510.981095 90.769194z" fill="#001F45" p-id="4011"></path><path d="M640.891542 272.939303h-275.104477l-30.567165 138.825871h341.333334zM419.279602 511.108458l-84.059702-50.945274-90.42786 70.049751 124.81592 221.611941h48.39801l63.681592-53.492538v-30.567164l-62.40796-57.313433zM686.742289 460.163184l-84.059702 50.945274v99.343283l-62.40796 57.313433v30.567164l63.681592 53.492538h48.39801l124.81592-221.611941z" fill="#FFFFFF" p-id="4012"></path><path d="M418.43391 434.262607l30.567165 78.965174-10.189055 89.154229h140.099502l-10.189054-89.154229 30.567164-78.965174z" fill="#FFFFFF" p-id="4013"></path></svg>